<?xml version="1.0" encoding="utf-8"?>
<!-- Generator: Adobe Illustrator 22.1.0, SVG Export Plug-In . SVG Version: 6.00 Build 0)  -->
<svg version="1.1" id="Layer_1" xmlns="http://www.w3.org/2000/svg" xmlns:xlink="http://www.w3.org/1999/xlink" x="0px" y="0px"
	 viewBox="0 0 155.1 41.4" style="enable-background:new 0 0 155.1 41.4;" xml:space="preserve">
<style type="text/css">
	.st0{opacity:0.95;}
	.st1{fill-rule:evenodd;clip-rule:evenodd;fill:#E1001A;}
	.st2{fill-rule:evenodd;clip-rule:evenodd;fill:#0060AE;}
</style>
<title>Logotype CHIALI Trading Histoire du Groupe</title>
<g class="st0">
	<g>
		<g>
			<path class="st1" d="M35.5,30.1l-11,9.3c-3.1,2.6-8.1,2.6-11.2,0l-11-9.3c-3.1-2.6-3.1-6.9,0-9.5l11-9.3c1.9-1.6,4.5-2.2,7-1.8
				c-0.4,0.2-0.8,0.5-1.2,0.8l-8.7,7.4c-2.4,2.1-2.4,5.5,0,7.5l8.7,7.4c2.4,2.1,6.4,2.1,8.9,0l8.7-7.4c0.4-0.3,0.7-0.6,0.9-1
				C38.1,26.2,37.3,28.5,35.5,30.1z"/>
			<path class="st2" d="M6.4,11.3l11-9.3c3.1-2.6,8.1-2.6,11.2,0l11,9.3c3.1,2.6,3.1,6.9,0,9.5l-11,9.3c-1.9,1.6-4.5,2.2-7,1.8
				c0.4-0.2,0.8-0.5,1.2-0.8l8.7-7.4c2.4-2.1,2.4-5.5,0-7.5l-8.7-7.4c-2.4-2.1-6.4-2.1-8.9,0l-8.7,7.4c-0.4,0.3-0.7,0.6-0.9,1
				C3.8,15.1,4.5,12.9,6.4,11.3z"/>
			<path class="st1" d="M15.2,24.4l4.6,3.9c1.3,1.1,3.4,1.1,4.7,0l4.6-3.9c1.3-1.1,1.3-2.9,0-4l-4.6-3.9c-0.8-0.7-1.9-0.9-2.9-0.8
				c0.2,0.1,0.3,0.2,0.5,0.3l3.7,3.1c1,0.9,1,2.3,0,3.1l-3.7,3.1c-1,0.9-2.7,0.9-3.7,0l-3.7-3.1c-0.1-0.1-0.3-0.3-0.4-0.4
				C14.2,22.8,14.5,23.7,15.2,24.4z"/>
			<path class="st2" d="M27.4,16.5l-4.6-3.9c-1.3-1.1-3.4-1.1-4.7,0l-4.6,3.9c-1.3,1.1-1.3,2.9,0,4l4.6,3.9c0.8,0.7,1.9,0.9,2.9,0.8
				c-0.2-0.1-0.3-0.2-0.5-0.3l-3.7-3.1c-1-0.9-1-2.3,0-3.2l3.7-3.1c1-0.9,2.7-0.9,3.7,0l3.7,3.1c0.1,0.1,0.3,0.3,0.4,0.4
				C28.5,18.1,28.2,17.2,27.4,16.5z"/>
		</g>
		<g>
			<path class="st2" d="M51.1,41.1V29.5H47v-2.4h11.1v2.4h-4.1v11.6H51.1L51.1,41.1z M70.7,27.2h2.8v7.6c0,1.2,0,2,0.1,2.3
				c0.1,0.6,0.4,1,0.9,1.4c0.5,0.3,1.1,0.5,1.9,0.5c0.8,0,1.4-0.2,1.8-0.5c0.4-0.3,0.7-0.7,0.7-1.2C79,36.8,79,36,79,34.9v-7.7h2.8
				v7.3c0,1.7-0.1,2.9-0.2,3.6c-0.2,0.7-0.4,1.3-0.8,1.8c-0.4,0.5-1,0.9-1.6,1.1c-0.7,0.3-1.6,0.4-2.7,0.4c-1.3,0-2.3-0.2-3-0.5
				c-0.7-0.3-1.2-0.7-1.6-1.2c-0.4-0.5-0.7-1-0.8-1.5c-0.2-0.8-0.3-2-0.3-3.5V27.2L70.7,27.2z M95.7,27.2h5.6c1.1,0,1.9,0,2.5,0.1
				c0.5,0.1,1,0.3,1.5,0.6c0.4,0.3,0.8,0.7,1.1,1.2c0.3,0.5,0.4,1,0.4,1.6c0,0.7-0.2,1.3-0.5,1.8c-0.4,0.5-0.8,1-1.4,1.2
				c0.8,0.2,1.5,0.7,2,1.3c0.5,0.6,0.7,1.3,0.7,2.1c0,0.6-0.1,1.3-0.4,1.9c-0.3,0.6-0.7,1.1-1.2,1.4c-0.5,0.4-1.1,0.6-1.9,0.7
				c-0.5,0-1.6,0.1-3.4,0.1h-4.8V27.2L95.7,27.2z M98.5,29.5v3.2h1.8c1.1,0,1.8,0,2,0c0.5-0.1,0.9-0.2,1.1-0.5
				c0.3-0.3,0.4-0.6,0.4-1.1c0-0.4-0.1-0.8-0.4-1.1c-0.2-0.3-0.6-0.4-1.1-0.5c-0.3,0-1.1,0-2.4,0H98.5L98.5,29.5z M98.5,35v3.7h2.6
				c1,0,1.7,0,1.9-0.1c0.4-0.1,0.8-0.3,1-0.6c0.3-0.3,0.4-0.7,0.4-1.2c0-0.4-0.1-0.8-0.3-1.1c-0.2-0.3-0.5-0.5-0.9-0.6
				c-0.4-0.1-1.2-0.2-2.5-0.2H98.5L98.5,35z M120.6,41.1v-14H131v2.4h-7.5v3.1h7V35h-7v3.8h7.8v2.4H120.6L120.6,41.1z M143.8,36.6
				l2.7-0.3c0.2,0.9,0.5,1.6,1,2c0.5,0.4,1.2,0.6,2,0.6c0.9,0,1.6-0.2,2.1-0.6c0.5-0.4,0.7-0.8,0.7-1.3c0-0.3-0.1-0.6-0.3-0.8
				c-0.2-0.2-0.5-0.4-1-0.6c-0.3-0.1-1.1-0.3-2.3-0.6c-1.5-0.4-2.6-0.8-3.2-1.4c-0.9-0.8-1.3-1.7-1.3-2.8c0-0.7,0.2-1.4,0.6-2
				c0.4-0.6,1-1.1,1.7-1.4c0.8-0.3,1.7-0.5,2.7-0.5c1.8,0,3.1,0.4,4,1.2c0.9,0.8,1.3,1.8,1.4,3.1l-2.8,0.1c-0.1-0.7-0.4-1.2-0.8-1.5
				c-0.4-0.3-1-0.5-1.8-0.5c-0.8,0-1.5,0.2-1.9,0.5c-0.3,0.2-0.4,0.5-0.4,0.9c0,0.3,0.1,0.6,0.4,0.8c0.4,0.3,1.2,0.6,2.6,0.9
				c1.4,0.3,2.4,0.7,3,1c0.7,0.3,1.2,0.8,1.5,1.4c0.4,0.6,0.6,1.3,0.6,2.2c0,0.8-0.2,1.6-0.7,2.2c-0.4,0.7-1.1,1.2-1.9,1.6
				c-0.8,0.3-1.8,0.5-3,0.5c-1.8,0-3.1-0.4-4.1-1.2C144.5,39.3,144,38.1,143.8,36.6z"/>
			<path class="st1" d="M64.3,9.4c-0.7-0.7-1.5-1.2-2.2-1.6c-0.8-0.3-1.6-0.5-2.4-0.5c-1.3,0-2.4,0.4-3.2,1.2
				c-0.8,0.8-1.2,1.9-1.2,3.2c0,1.3,0.4,2.4,1.1,3.1c0.8,0.8,1.8,1.2,3.1,1.2c0.8,0,1.6-0.2,2.3-0.5c0.8-0.3,1.7-0.9,2.6-1.6
				l-0.3,8.4c-0.9,0.4-1.7,0.6-2.6,0.8c-0.9,0.2-1.7,0.3-2.6,0.3c-1.1,0-2.1-0.1-3.1-0.4c-1-0.2-1.9-0.6-2.7-1
				c-2-1.1-3.5-2.6-4.5-4.3c-1-1.7-1.5-3.7-1.5-6c0-1.7,0.3-3.2,0.9-4.6c0.6-1.4,1.4-2.7,2.5-3.8c1.1-1.1,2.4-1.9,3.8-2.5
				C55.8,0.3,57.3,0,59,0c0.9,0,1.8,0.1,2.7,0.3c0.9,0.2,1.7,0.5,2.6,0.8V9.4L64.3,9.4z M67.8,22.8V0.5h8v7.4h4.9V0.5h8v22.3h-8V15
				h-4.9v7.9H67.8L67.8,22.8z M93.1,22.8V0.5h8.1v22.3H93.1L93.1,22.8z M113.3,14.7h3.3l-0.7-2.5c-0.3-1.3-0.6-2.3-0.7-3
				c-0.1-0.7-0.2-1.3-0.2-1.9h-0.1c0,0.6-0.1,1.3-0.2,1.9c-0.1,0.7-0.4,1.7-0.7,3L113.3,14.7L113.3,14.7z M102.6,22.8l8-22.3h8.9
				l7.8,22.3h-8.6L118,20h-6l-0.7,2.8H102.6L102.6,22.8z M128.6,22.8V0.5h8v15.1h7.8v7.2H128.6L128.6,22.8z M147,22.8V0.5h8.1v22.3
				H147z"/>
			<rect x="47.8" y="24.9" class="st1" width="107.3" height="0.6"/>
		</g>
	</g>
</g>
</svg>
